<svg height="512pt" viewBox="0 0 512 512" width="512pt" xmlns="http://www.w3.org/2000/svg"><path d="m437.019531 74.980469c-48.351562-48.351563-112.640625-74.980469-181.019531-74.980469s-132.667969 26.628906-181.019531 74.980469c-48.351563 48.351562-74.980469 112.640625-74.980469 181.019531s26.628906 132.667969 74.980469 181.019531c48.351562 48.351563 112.640625 74.980469 181.019531 74.980469s132.667969-26.628906 181.019531-74.980469c48.351563-48.351562 74.980469-112.640625 74.980469-181.019531s-26.628906-132.667969-74.980469-181.019531zm-340.824219 21.214843c42.683594-42.6875 99.4375-66.195312 159.804688-66.195312s117.121094 23.507812 159.804688 66.195312c42.6875 42.683594 66.195312 99.4375 66.195312 159.804688 0 16.679688-1.792969 33.078125-5.292969 48.984375l-76.566406-66.917969c-19.832031-17.332031-48.902344-17.664062-69.125-.792968l-63.304687 52.820312c-7.824219 6.527344-18.839844 7.21875-27.414063 1.71875l-40.652344-26.058594c-17.03125-10.925781-38.429687-11.304687-55.84375-.992187l-102.90625 60.933593c-7.171875-22.21875-10.894531-45.671874-10.894531-69.695312 0-60.367188 23.507812-117.121094 66.195312-159.804688zm319.609376 319.609376c-42.683594 42.6875-99.4375 66.195312-159.804688 66.195312s-117.121094-23.507812-159.804688-66.195312c-18.324218-18.324219-33.113281-39.238282-44.027343-61.917969l106.917969-63.3125c7.597656-4.5 16.933593-4.332031 24.367187.433593l40.652344 26.0625c19.652343 12.601563 44.898437 11.015626 62.820312-3.9375l63.308594-52.820312c8.824219-7.363281 21.507813-7.21875 30.160156.34375l86.878907 75.929688c-11.191407 29.378906-28.570313 56.324218-51.46875 79.21875zm0 0"/><path d="m158.824219 222.648438c32.28125 0 58.546875-26.261719 58.546875-58.542969s-26.265625-58.542969-58.546875-58.542969c-32.277344 0-58.542969 26.261719-58.542969 58.542969s26.265625 58.542969 58.542969 58.542969zm0-87.085938c15.742187 0 28.546875 12.804688 28.546875 28.542969s-12.804688 28.542969-28.546875 28.542969c-15.734375 0-28.542969-12.804688-28.542969-28.542969s12.808594-28.542969 28.542969-28.542969zm0 0"/></svg>